<?xml version="1.0" encoding="utf-8"?>
<!-- Generator: Adobe Illustrator 27.8.1, SVG Export Plug-In . SVG Version: 6.00 Build 0)  -->
<svg version="1.1" id="Layer_1" xmlns="http://www.w3.org/2000/svg" xmlns:xlink="http://www.w3.org/1999/xlink" x="0px" y="0px"
	 viewBox="0 0 1080 1080" style="enable-background:new 0 0 1080 1080;" xml:space="preserve">
<style type="text/css">
	.st0{fill:#FFFFFF;}
	.st1{fill:#022451;}
	.st2{opacity:0.6;}
	.st3{fill:#05997F;}
	.st4{fill:none;stroke:#FFFFFF;stroke-width:2;stroke-miterlimit:10;}
	.st5{fill:none;stroke:#FFFFFF;stroke-width:2.4877;stroke-miterlimit:10;}
	.st6{fill:none;stroke:#FFFFFF;stroke-width:1.5;stroke-miterlimit:10;}
	.st7{opacity:0.5;}
	.st8{fill:url(#SVGID_1_);}
	.st9{fill:url(#SVGID_00000022524009286015295450000016426218105676679319_);}
</style>
<rect class="st0" width="1080" height="1080"/>
<g>
	<g>
		<g>
			<path class="st1" d="M821.17,301.05c0,116.63-108.15,266.15-286.08,266.15c-95.69,0-65.29-1-83.73-1
				c60.73-74.25,97.73-75.57,135.29-84.43c65.1-17.49,103.53-55.25,124.43-98.17c28.71-58.97,25.14-128.94-9.41-184.68
				c-30.09-48.54-83.77-90.43-167.35-90.43c-150.66,0-196.96,141.38-196.96,190.89v424.37c0,11.36-5.27,22.12-14.37,28.92
				c-18.98,14.18-39.97,22.69-59.82,22.69c-2.06,0-7.84,0-7.84,0c0-71.4,0-117.89,0-117.89V344.05
				c0-160.02,82.48-314.14,280.76-314.14C734.45,29.91,821.17,184.43,821.17,301.05z"/>
			<g class="st2">
				<path class="st0" d="M317.32,257.63c5.89,0,10.69-4.8,10.69-10.69s-4.79-10.69-10.69-10.69c-3.64,0-6.85,1.83-8.78,4.61
					l-17.1-10.85c0.22-0.62,0.35-1.29,0.35-1.99c0-3.26-2.65-5.92-5.92-5.92s-5.92,2.65-5.92,5.92s2.65,5.92,5.92,5.92
					c2.03,0,3.82-1.02,4.88-2.58l17.02,10.8c-0.73,1.44-1.14,3.06-1.14,4.78c0,1.75,0.43,3.41,1.18,4.87l-14.83,11.68l-17.44-0.66
					l-9.59,15.25l8.41,15.93l17.85,0.68l5.26,2.49c-1.02,1.06-1.66,2.51-1.66,4.1c0,3.26,2.65,5.92,5.92,5.92
					c0.23,0,0.45-0.02,0.67-0.04l3.5,24.89l-8.36,11.9l6.02,12.97l-19.13,28.23l-13.48-0.58l-7.7,12.1l6.63,12.71l13.58,0.59
					l19.24,26.53l-8.57,13.46l3.74,7.17l-16.32,15.44c-1.05-0.96-2.44-1.55-3.98-1.55c-3.26,0-5.92,2.65-5.92,5.92
					s2.65,5.92,5.92,5.92c0.49,0,0.97-0.07,1.43-0.18l17.77,35.08l-1.83-0.08l-11.03,17.33l7.98,15.3l-17.13,22.67
					c-0.82-0.43-1.74-0.67-2.73-0.67c-3.26,0-5.92,2.65-5.92,5.92c0,3.1,2.41,5.65,5.45,5.89l16.31,49.03
					c-2.35,1.56-3.9,4.22-3.9,7.24c0,2.99,1.52,5.63,3.82,7.19l-16.05,36.19c-0.4-0.11-0.8-0.18-1.23-0.18
					c-2.65,0-4.81,2.15-4.81,4.81s2.15,4.81,4.81,4.81c0.61,0,1.19-0.13,1.73-0.34l12.87,22.12l-6.67,11.56l4.9,8.49l-10.83,13.88
					c-0.86-0.49-1.86-0.78-2.93-0.78c-3.26,0-5.92,2.65-5.92,5.92s2.65,5.92,5.92,5.92s5.92-2.65,5.92-5.92
					c0-1.66-0.69-3.16-1.79-4.23l10.44-13.38l1.4,2.42h14.22l7.11-12.31l-4.43-7.66l12.28-8.68c1.08,1.2,2.64,1.95,4.38,1.95
					c3.26,0,5.92-2.65,5.92-5.92s-2.65-5.92-5.92-5.92s-5.92,2.65-5.92,5.92c0,0.99,0.25,1.92,0.68,2.74l-12.17,8.6l-1.93-3.34
					h-13.35l-12.87-22.13c1.08-0.88,1.78-2.21,1.78-3.71c0-1.69-0.88-3.17-2.2-4.03l15.99-36.06c1.08,0.49,2.28,0.76,3.54,0.76
					c4.79,0,8.68-3.9,8.68-8.68c0-2.47-1.04-4.69-2.7-6.28l15.78-19.25c1,0.77,2.25,1.24,3.61,1.24c3.26,0,5.92-2.65,5.92-5.92
					s-2.65-5.92-5.92-5.92s-5.92,2.65-5.92,5.92c0,1.36,0.47,2.61,1.24,3.61l-15.88,19.37c-1.38-0.92-3.04-1.46-4.82-1.46
					c-1.23,0-2.39,0.26-3.45,0.72l-16.09-48.38c2.74-0.51,4.83-2.92,4.83-5.81c0-1.74-0.76-3.3-1.96-4.39l16.67-22.06l0.75,1.44
					l20.52,0.89l11.03-17.33l-9.49-18.22l-16.98-0.73l-18.08-35.7c1.83-1.01,3.08-2.95,3.08-5.19c0-1.19-0.36-2.3-0.96-3.23
					l16.06-15.2l3.37,6.47l16.93,0.73l9.1-14.29l-7.83-15.02l-16.19-0.7l-19.24-26.53l7.17-11.26l-6.22-11.93l19.11-28.21
					l14.22,1.26l8.71-12.4l-6.38-13.74l-13.98-1.24l-3.49-24.85c2.21-0.86,3.78-3,3.78-5.51c0-3.26-2.65-5.92-5.92-5.92
					c-1.07,0-2.07,0.29-2.93,0.79l-5.66-2.68l8.82-14.02l-7.87-14.91l14.52-11.44C310.54,255.84,313.72,257.63,317.32,257.63z
					 M285.88,231.94c-2.16,0-3.92-1.76-3.92-3.92s1.76-3.92,3.92-3.92s3.92,1.76,3.92,3.92S288.04,231.94,285.88,231.94z
					 M269.6,757.95c-2.16,0-3.92-1.76-3.92-3.92s1.76-3.92,3.92-3.92c2.16,0,3.92,1.76,3.92,3.92S271.76,757.95,269.6,757.95z
					 M319.12,702.31c2.16,0,3.92,1.76,3.92,3.92s-1.76,3.92-3.92,3.92s-3.92-1.76-3.92-3.92S316.96,702.31,319.12,702.31z
					 M304.58,726.53l-5.95,10.31h-11.91l-5.95-10.31l5.95-10.31h11.91L304.58,726.53z M318.04,606.25c2.16,0,3.92,1.76,3.92,3.92
					s-1.76,3.92-3.92,3.92s-3.92-1.76-3.92-3.92S315.88,606.25,318.04,606.25z M299.35,640.36c0,3.69-3,6.68-6.68,6.68
					s-6.68-3-6.68-6.68s3-6.68,6.68-6.68S299.35,636.68,299.35,640.36z M272.04,582.12c-2.16,0-3.92-1.76-3.92-3.92
					s1.76-3.92,3.92-3.92s3.92,1.76,3.92,3.92S274.2,582.12,272.04,582.12z M322.66,536.66l-9.79,15.38l-18.21-0.79l-8.43-16.17
					l9.79-15.38l18.21,0.79L322.66,536.66z M277.58,480.84c-2.16,0-3.92-1.76-3.92-3.92s1.76-3.92,3.92-3.92s3.92,1.76,3.92,3.92
					S279.74,480.84,277.58,480.84z M325.69,451.31l-7.86,12.35l-14.62-0.63l-6.76-12.98l7.86-12.35l14.62,0.63L325.69,451.31z
					 M283.14,407.95l-12.02-0.52l-5.56-10.67l6.46-10.15l12.02,0.52l5.56,10.67L283.14,407.95z M325.42,346.43l-7.38,10.51
					l-12.79-1.14l-5.41-11.65l7.38-10.51l12.79,1.14L325.42,346.43z M305.65,301.28c0,2.16-1.76,3.92-3.92,3.92
					s-3.92-1.76-3.92-3.92s1.76-3.92,3.92-3.92S305.65,299.12,305.65,301.28z M291.29,292.65l-15.69-0.6l-7.33-13.89l8.36-13.29
					l15.69,0.59l7.33,13.89L291.29,292.65z M317.32,238.26c4.79,0,8.69,3.9,8.69,8.69c0,4.79-3.9,8.69-8.69,8.69
					s-8.69-3.9-8.69-8.69C308.63,242.15,312.53,238.26,317.32,238.26z"/>
				<path class="st0" d="M793.93,353.18c-1.46,0-2.75,0.66-3.64,1.67l-16.85-10.53l-5.89-11.28l8.6-18.88
					c0.4,0.11,0.81,0.18,1.24,0.18c2.68,0,4.86-2.17,4.86-4.86c0-2.68-2.17-4.86-4.86-4.86c-0.3,0-0.6,0.04-0.89,0.09l-20.49-29.06
					c1.62-1.23,2.68-3.18,2.68-5.37c0-2.23-1.1-4.21-2.77-5.44l8.04-14.84l17.8,5.13l9.68,42.02c-2.07,0.55-3.61,2.43-3.61,4.68
					c0,2.68,2.18,4.86,4.86,4.86c2.68,0,4.86-2.18,4.86-4.86c0-2.6-2.04-4.7-4.6-4.83l-9.73-42.21l14.18-13.65l-4.93-19.93
					l-18.77-5.41l-3.73-40.73c2-0.39,3.52-2.15,3.52-4.27c0-2.4-1.95-4.35-4.35-4.35c-2.14,0-3.92,1.56-4.28,3.6h-24.93
					c-0.86-1.59-2.52-2.68-4.46-2.68c-0.74,0-1.45,0.17-2.08,0.45l-9.97-17.93l7.29-11.92l-7.09-13.04l-14.84-0.38l-7.18,11.74
					l-29.39-8.3c0.07-0.46,0.11-0.92,0.11-1.39c0-5.4-4.39-9.79-9.79-9.79c-2.15,0-4.14,0.71-5.76,1.89l-15.6-22.29l8.47-4.67
					l0.45-23.34l-19.99-12.06l-20.44,11.28l-0.21,10.74l-33.89-0.35c-0.34-2.06-2.12-3.64-4.28-3.64c-0.45,0-0.88,0.09-1.29,0.22
					l-16.5-19.33l5.23-10.51c0.72,0.31,1.51,0.49,2.35,0.49c3.24,0,5.86-2.62,5.86-5.86s-2.62-5.86-5.86-5.86s-5.86,2.62-5.86,5.86
					c0,1.86,0.87,3.52,2.22,4.59l-16.86,33.86l-6.08-3.67l-10.26,5.66l-25.18-15.64c0.11-0.38,0.18-0.77,0.18-1.18
					c0-2.4-1.95-4.35-4.35-4.35c-2.4,0-4.35,1.95-4.35,4.35c0,0.09,0.02,0.17,0.03,0.26l-24.14,10.1l0.26-13.57l-13.41-8.09
					l-13.71,7.57l-0.28,14.53l-28.35,7.73l-3.08,22.46c-2.77,0.29-4.97,2.5-5.26,5.26l-32.36,4.65c-0.42-2.26-2.4-3.99-4.79-3.99
					c-2.69,0-4.88,2.19-4.88,4.88c0,2.34,1.66,4.3,3.87,4.77l-6.46,25.01l-20.43,10.52l-1.13,23.64l4.69,3.01l-15,26.55
					c-0.7-0.29-1.47-0.46-2.27-0.46c-0.8,0-1.57,0.16-2.27,0.45l-8.58-15.43c1.83-1.01,3.07-2.95,3.07-5.18
					c0-3.26-2.65-5.92-5.92-5.92s-5.92,2.65-5.92,5.92s2.65,5.92,5.92,5.92c0.49,0,0.97-0.07,1.43-0.18l8.69,15.64
					c-1.43,1.08-2.35,2.79-2.35,4.71c0,3.26,2.65,5.92,5.92,5.92s5.92-2.65,5.92-5.92c0-1.92-0.92-3.62-2.35-4.71l14.97-26.49
					l13.96,8.98l21.04-10.84l1.14-23.64l-19.04-12.24l6.51-25.2c2.23-0.25,4-1.98,4.28-4.2l32.38-4.65
					c0.43,2.84,2.88,5.03,5.84,5.03c1.89,0,3.57-0.89,4.66-2.28l13.49,9.14c-0.33,0.73-0.51,1.54-0.51,2.39
					c0,3.24,2.62,5.86,5.86,5.86c3.24,0,5.86-2.62,5.86-5.86c0-0.91-0.21-1.76-0.58-2.53l23.59-18.33c0.79,1.11,2.08,1.84,3.54,1.84
					c2.4,0,4.35-1.95,4.35-4.35c0-2.4-1.95-4.35-4.35-4.35c-0.08,0-0.16,0.02-0.24,0.02l-5.23-17.76l7.48-4.13l0.01-0.45
					l24.51-10.26c0.67,1.53,2.2,2.61,3.98,2.61c1.45,0,2.73-0.72,3.52-1.81l25.05,15.56l-0.23,11.73l10.78,6.51L545,93.29l0.09-4.47
					l22.67-7.5c0.79,1.08,2.06,1.78,3.5,1.78c2.14,0,3.9-1.54,4.27-3.57l33.87,0.35L609.18,91l19.99,12.06l10.65-5.88l15.77,22.53
					c-1.78,1.77-2.88,4.22-2.88,6.93c0,5.4,4.39,9.79,9.79,9.79c4.4,0,8.14-2.92,9.36-6.93l29.45,8.32l6.78,12.47l13.98,0.36
					l10.03,18.03c-1.07,0.93-1.75,2.29-1.75,3.82c0,1.64,0.79,3.08,1.99,4.01l-9.53,17.73c-0.83-0.23-1.69-0.36-2.59-0.36
					c-5.4,0-9.79,4.39-9.79,9.79s4.39,9.79,9.79,9.79s9.79-4.39,9.79-9.79c0-3.97-2.37-7.38-5.77-8.92l9.41-17.5
					c0.56,0.21,1.16,0.34,1.8,0.34c2.81,0,5.09-2.28,5.09-5.09c0-0.31-0.04-0.62-0.09-0.91h24.39c0.32,1.82,1.77,3.25,3.61,3.54
					l3.75,40.95l-14.26,13.72l4.79,19.35l-8.11,14.98c-0.82-0.35-1.72-0.55-2.67-0.55c-3.72,0-6.74,3.02-6.74,6.74
					s3.02,6.74,6.74,6.74c0.99,0,1.92-0.22,2.77-0.6l20.32,28.83c-1.49,0.83-2.51,2.4-2.51,4.23c0,1.72,0.9,3.22,2.24,4.08
					l-8.55,18.77l-12.83-0.54l-7.41,11.67l6.18,11.84l-4.6,33.42c-3.42,0.32-6.12,3.2-6.12,6.71c0,1.78,0.7,3.4,1.83,4.6
					l-5.44,11.52h-13.78l-7.36,12.74l7.36,12.74h1.91l-2.97,17.24c-2.5,0.3-4.46,2.41-4.46,5c0,0.56,0.11,1.09,0.28,1.59
					l-32.34,16.9c-1.18-1.97-3.33-3.3-5.78-3.3c-3.72,0-6.74,3.02-6.74,6.74c0,1.92,0.81,3.66,2.11,4.89l-16.18,26.43h-10.93
					l-2.01,3.47l-24.38-15.81c0.21-0.54,0.34-1.13,0.34-1.75c0-2.68-2.17-4.86-4.86-4.86c-2.48,0-4.5,1.87-4.8,4.27l-29.03,2.67
					c-0.4-2.39-2.47-4.22-4.97-4.22c-2.79,0-5.06,2.27-5.06,5.06c0,2.73,2.18,4.95,4.89,5.04l4.81,6l-19.72,1.5l-9.08,18.91
					l-31.8-1.5c-0.35-2.45-2.44-4.35-4.99-4.35c-2.79,0-5.06,2.27-5.06,5.06s2.27,5.06,5.06,5.06c2.52,0,4.59-1.85,4.98-4.26
					l31.82,1.5l11.95,17.49l21.88-1.67l9.5-19.78l-12.38-18.12l-0.35,0.03l-4.9-6.11c1.82-0.59,3.18-2.18,3.44-4.12l29.04-2.67
					c0.43,2.25,2.4,3.95,4.77,3.95c1.52,0,2.87-0.72,3.76-1.82l24.39,15.81l-3.13,5.42l5.89,10.2h11.77l5.89-10.2l-5.44-9.43
					l16.09-26.29c1.01,0.6,2.17,0.95,3.43,0.95c3.72,0,6.74-3.02,6.74-6.74c0-0.72-0.12-1.42-0.33-2.07l32.38-16.92
					c0.92,1.28,2.41,2.13,4.1,2.13c2.79,0,5.06-2.27,5.06-5.06c0-2.47-1.79-4.53-4.14-4.97l2.98-17.27h11.28l7.36-12.74l-6.96-12.05
					l5.29-11.2c1.07,0.71,2.35,1.13,3.72,1.13c3.72,0,6.74-3.02,6.74-6.74c0-3.41-2.56-6.24-5.85-6.67l4.54-32.99l12.58,0.53
					l6.71-10.56l16.58,10.36c-0.26,0.59-0.4,1.24-0.4,1.93c0,2.68,2.17,4.86,4.86,4.86c2.68,0,4.86-2.18,4.86-4.86
					S796.61,353.18,793.93,353.18z M306.18,187.69c0-2.16,1.76-3.92,3.92-3.92s3.92,1.76,3.92,3.92s-1.76,3.92-3.92,3.92
					S306.18,189.85,306.18,187.69z M323.78,217.68c-2.16,0-3.92-1.76-3.92-3.92s1.76-3.92,3.92-3.92s3.92,1.76,3.92,3.92
					S325.94,217.68,323.78,217.68z M375.38,179.46l-18.99,9.78l-17.96-11.56l1.02-21.34l18.99-9.78l17.97,11.56L375.38,179.46z
					 M365.4,117.68c-1.59,0-2.88-1.29-2.88-2.88c0-1.59,1.29-2.88,2.88-2.88c1.59,0,2.88,1.29,2.88,2.88
					C368.28,116.39,366.99,117.68,365.4,117.68z M408.44,113.81c-2.16,0-3.92-1.76-3.92-3.92s1.76-3.92,3.92-3.92
					s3.92,1.76,3.92,3.92S410.6,113.81,408.44,113.81z M462.63,97.69c-1.56,0.66-2.65,2.21-2.65,4c0,0.39,0.07,0.76,0.16,1.11
					l-23.76,18.46c-1.07-1.26-2.67-2.07-4.46-2.07c-1.85,0-3.49,0.86-4.56,2.19l-13.5-9.15c0.31-0.72,0.49-1.51,0.49-2.35
					c0-2.96-2.19-5.41-5.03-5.84l2.93-21.31l27.47-7.49l12.92,7.8l4.89-2.7L462.63,97.69z M463.89,73.99l-11.2,6.18l-10.95-6.61
					l0.25-12.79l11.2-6.18l10.95,6.61L463.89,73.99z M543.03,92.1l-9,4.97l-8.8-5.31l0.2-10.28l9-4.97l8.8,5.31L543.03,92.1z
					 M545.12,87.24l0.13-6.53l-3.41-2.06l10.9-21.89l15.86,18.58c-1.03,0.8-1.7,2.03-1.7,3.43c0,0.42,0.08,0.82,0.19,1.21
					L545.12,87.24z M611.2,89.88l0.41-21.03l18.42-10.16l18.01,10.87l-0.41,21.03l-18.42,10.16L611.2,89.88z M662.5,134.43
					c-4.3,0-7.79-3.5-7.79-7.79c0-4.3,3.5-7.79,7.79-7.79s7.79,3.5,7.79,7.79C670.29,130.93,666.8,134.43,662.5,134.43z
					 M703.32,137.3l6.54-10.69l12.53,0.32l5.99,11.01l-6.54,10.69l-12.53-0.32L703.32,137.3z M728.01,203.66
					c0,4.3-3.5,7.79-7.79,7.79s-7.79-3.5-7.79-7.79c0-4.3,3.5-7.79,7.79-7.79S728.01,199.36,728.01,203.66z M766.76,170.82
					c0-1.3,1.06-2.35,2.35-2.35c1.3,0,2.35,1.06,2.35,2.35s-1.06,2.35-2.35,2.35C767.82,173.17,766.76,172.12,766.76,170.82z
					 M773.28,217.78l17.5,5.05l4.38,17.68l-13.12,12.64l-17.5-5.05l-4.38-17.68L773.28,217.78z M747.21,270.29
					c0-2.61,2.13-4.74,4.74-4.74s4.74,2.13,4.74,4.74s-2.13,4.74-4.74,4.74S747.21,272.91,747.21,270.29z M518.3,535.09
					c-1.69,0-3.06-1.37-3.06-3.06s1.37-3.06,3.06-3.06c1.69,0,3.06,1.37,3.06,3.06S519.98,535.09,518.3,535.09z M587.63,548.24
					l-19.58,1.49l-11.08-16.21l8.5-17.7l19.58-1.49l11.08,16.21L587.63,548.24z M579.25,504.43c-1.69,0-3.06-1.37-3.06-3.06
					s1.37-3.06,3.06-3.06c1.69,0,3.06,1.37,3.06,3.06S580.94,504.43,579.25,504.43z M659.58,530.93h-9.46l-4.73-8.2l4.73-8.2h9.46
					l4.73,8.2L659.58,530.93z M680.69,485.96c-2.61,0-4.74-2.13-4.74-4.74s2.13-4.74,4.74-4.74s4.74,2.13,4.74,4.74
					S683.3,485.96,680.69,485.96z M726.65,459.29c0,1.69-1.37,3.06-3.06,3.06c-1.69,0-3.06-1.37-3.06-3.06s1.37-3.06,3.06-3.06
					C725.27,456.23,726.65,457.6,726.65,459.29z M737.61,435.05h-12.4l-6.2-10.74l6.2-10.74h12.4l6.2,10.74L737.61,435.05z
					 M752.92,395.45c0,2.61-2.13,4.74-4.74,4.74s-4.74-2.13-4.74-4.74s2.13-4.74,4.74-4.74S752.92,392.83,752.92,395.45z
					 M765.12,354.27l-11.51-0.49l-5.33-10.21l6.17-9.72l11.51,0.49l5.33,10.21L765.12,354.27z"/>
			</g>
		</g>
		<g>
			<g>
				<path class="st3" d="M621.95,384.05c0,12.03-38.67,19.33-59.47,38.65c-16.69,15.51-29.12,31.71-37.33,43.06
					c-6.83,9.43-14.82,17.94-23.76,25.4c-19.05,15.9-49.09,40.06-61.07,57.52c-3.45,4.27-23.61,27.92-38.14,61.97
					c-9.02,21.15-16.16,45.33-24.86,68.53c-7.74,20.64-19.24,39.71-34.37,55.69v-171c7.38-23.29,36.12-65.54,42.82-76.42
					c9.26-16.28,15.03-42.97,16.79-53.05c1.77-10.08,11.32-65.42,11.14-73.91c-0.17-8.49,9.2-19.45,11.85-28.12
					c2.65-8.66,13.44-15.2,26.1-20.44c6.01-2.84,121.79-60.62,126.16-62.15c4.37-1.53,16.82-6.23,20.42,1.42
					c2.89,6.11-7.79,16.84-16.43,24.41c-3.51,3.08-7.27,5.85-11.25,8.28c-19.12,11.66-71.16,42.93-80.89,45.95
					c-8.52,1.53-32.98,1.75-32.55,6.66c0.38,2.45,32.44-3.94,48.52-3.31c4.74,0.18,9.17,2.46,12.08,6.21
					c8.18,10.56,17.6,33.22,17.6,45.25c0,23.62-15.51,34.78-19.18,34.78c-2.09,0-3.98-2.06-5.04-4.28
					c-0.97-2.04-0.58-4.46,0.92-6.16c2.11-2.39,5.11-7.52,5.11-21.51c0-18.42-12.84-31.95-20.87-31.95
					c-10.95-0.97-37.55,2.14-45.35,5.15c-0.97,0.38-0.73,1.81,0.3,1.85c10.45,0.44,27.69-3.33,42.07-3.33
					c15.6,0,19.72,22.55,19.72,32.48c0,20.81-18.51,28.6-29.2,30.47c-2.16,0.37-4.3-0.9-4.97-2.99
					c-4.01-12.57,17.52-21.89,12.58-30.63c-1.07-1.89-3.12-3.04-5.29-3.15c-15.81-0.81-23.1,9.99-23.1,14.25v57.63
					c0,24.23-13.15,34.32-23.55,44.79c21.18-10.77,27.06-32.33,27.06-39.67v-37.07c0-5.65,3.82-9.78,10.24-15.13
					c-2.37,2.14-4.96,12.84,4.46,15.67c9.43,2.83,23.21-6.73,25.35-10.32c0.39,1.6,2.37,5.35,6.97,7.43
					c13.48,3.2,24.91-35.54,67.55-47C600.63,370.57,621.95,377.31,621.95,384.05z"/>
				<path class="st3" d="M507.93,279.17c1.42-0.66,2.64-1.65,3.58-2.9c9.95-13.15,45.98-75.51,28.23-78.96
					c-7.21-1.11-25.53,26.82-32,36.07c-5.47,7.81-45.14,63.05-52.58,72.37c-0.19,0.24,0.09,0.56,0.35,0.41
					C468.57,298.48,498.8,283.44,507.93,279.17z"/>
			</g>
		</g>
		<g>
			<g>
				<path class="st1" d="M621.84,316.93l-35.87,20.99l-14.34-26.03c-5.54-10.05-1.88-22.68,8.17-28.22c3.18-1.75,6.61-2.58,10-2.58
					c7.33,0,14.43,3.88,18.21,10.75L621.84,316.93z"/>
				<path class="st3" d="M626.99,369.32c-10.05,5.53-22.68,1.88-28.22-8.17l-10.12-18.37l35.87-20.99l10.64,19.31
					C640.69,351.15,637.04,363.78,626.99,369.32z"/>
			</g>
			<g>
				<g>
					<g>
						<path class="st3" d="M648.56,337.37c-0.1,0-0.19-0.01-0.29-0.02c-1.09-0.16-1.85-1.17-1.69-2.27
							c3.07-21.04-5.22-37.58-24.63-49.17c-0.95-0.57-1.26-1.79-0.69-2.74c0.57-0.95,1.8-1.26,2.74-0.69
							c20.94,12.49,29.87,30.39,26.54,53.18C650.39,336.65,649.53,337.37,648.56,337.37z"/>
					</g>
				</g>
				<g>
					<g>
						<path class="st3" d="M661.01,331.76c-0.08,0-0.16,0-0.24-0.01c-1.1-0.13-1.88-1.13-1.74-2.23
							c2.83-23.27-7.45-41.37-30.57-53.82c-0.97-0.52-1.34-1.74-0.81-2.71c0.52-0.97,1.74-1.34,2.71-0.81
							c24.71,13.3,35.69,32.76,32.64,57.83C662.87,331.01,662,331.76,661.01,331.76z"/>
					</g>
				</g>
				<g>
					<g>
						<path class="st3" d="M578.23,366.51c-0.22,0-0.45-0.04-0.67-0.12c-18.84-6.67-25.32-34.7-24.73-44.73
							c0.06-1.1,0.99-1.95,2.12-1.88c1.1,0.07,1.94,1.01,1.88,2.12c-0.53,8.88,5.46,34.84,22.07,40.72
							c1.04,0.37,1.59,1.51,1.22,2.55C579.82,366,579.05,366.51,578.23,366.51z"/>
					</g>
				</g>
			</g>
		</g>
		<g>
			<g>
				<polygon class="st4" points="585.55,513.29 564.82,514.87 555.82,533.61 567.55,550.77 588.28,549.2 597.28,530.45 				"/>
				<polygon class="st4" points="660.15,513.54 649.53,513.54 644.22,522.73 649.53,531.93 660.15,531.93 665.46,522.73 				"/>
				<polygon class="st4" points="738.19,412.57 724.63,412.57 717.85,424.31 724.63,436.05 738.19,436.05 744.96,424.31 				"/>
				<polygon class="st4" points="766.58,333.36 753.92,332.83 747.12,343.52 752.99,354.75 765.65,355.29 772.44,344.59 				"/>
				<polygon class="st4" points="791.62,222.03 773,216.66 759.05,230.1 763.7,248.9 782.32,254.27 796.27,240.84 				"/>
				<polygon class="st4" points="722.99,125.94 709.31,125.59 702.16,137.27 708.7,149.3 722.39,149.64 729.53,137.97 				"/>
				<polygon class="st4" points="649.05,69 630.05,57.53 610.62,68.25 610.19,90.44 629.19,101.9 648.62,91.18 				"/>
				<polygon class="st4" points="544.24,81.26 534.44,75.35 524.43,80.88 524.21,92.31 534,98.22 544.01,92.7 				"/>
				<polygon class="st5" points="465.4,60.51 453.22,53.16 440.76,60.03 440.48,74.26 452.67,81.61 465.12,74.73 				"/>
				<polygon class="st4" points="376.35,180.09 377.43,157.6 358.49,145.42 338.48,155.73 337.4,178.22 356.33,190.4 				"/>
				<polygon class="st4" points="292.93,264.49 276.08,263.86 267.11,278.13 274.98,293.04 291.82,293.67 300.8,279.4 				"/>
				<polygon class="st4" points="320.67,333.83 306.73,332.59 298.69,344.05 304.58,356.74 318.53,357.98 326.57,346.53 				"/>
				<polygon class="st4" points="284.66,386.16 271.49,385.59 264.41,396.71 270.5,408.4 283.67,408.97 290.75,397.85 				"/>
				<polygon class="st4" points="319.54,437.36 303.77,436.68 295.29,450 302.59,464 318.36,464.68 326.84,451.36 				"/>
				<polygon class="st4" points="314.85,519.52 295.49,518.68 285.08,535.04 294.04,552.23 313.41,553.07 323.81,536.71 				"/>
				<polygon class="st4" points="299.2,715.21 286.14,715.21 279.61,726.53 286.14,737.84 299.2,737.84 305.73,726.53 				"/>
			</g>
			<g>
				<circle class="st4" cx="319.12" cy="706.22" r="4.92"/>
				<circle class="st4" cx="318.04" cy="610.16" r="4.92"/>
				<circle class="st4" cx="272.04" cy="578.21" r="4.92"/>
				<circle class="st4" cx="277.58" cy="476.92" r="4.92"/>
				<circle class="st4" cx="301.73" cy="301.28" r="4.92"/>
				<circle class="st4" cx="285.88" cy="228.02" r="4.92"/>
				<circle class="st4" cx="323.78" cy="213.77" r="4.92"/>
				<circle class="st4" cx="310.1" cy="187.69" r="4.92"/>
				<circle class="st4" cx="408.44" cy="109.89" r="4.92"/>
				<circle class="st4" cx="662.5" cy="126.64" r="8.79"/>
				<circle class="st4" cx="720.22" cy="203.66" r="8.79"/>
				<circle class="st4" cx="769.11" cy="170.82" r="3.35"/>
				<circle class="st4" cx="365.4" cy="114.81" r="3.88"/>
				<circle class="st4" cx="317.32" cy="246.94" r="9.69"/>
				<circle class="st4" cx="292.67" cy="640.36" r="7.68"/>
				<circle class="st4" cx="269.6" cy="754.03" r="4.92"/>
				<circle class="st4" cx="751.95" cy="270.29" r="5.74"/>
				<circle class="st4" cx="748.18" cy="395.45" r="5.74"/>
				<circle class="st4" cx="680.69" cy="481.22" r="5.74"/>
				<circle class="st4" cx="723.59" cy="459.29" r="4.06"/>
				<circle class="st4" cx="579.25" cy="501.37" r="4.06"/>
				<circle class="st4" cx="518.3" cy="532.03" r="4.06"/>
			</g>
			<g>
				<circle class="st0" cx="735.45" cy="172.49" r="5.09"/>
				<circle class="st0" cx="431.93" cy="125.06" r="5.86"/>
				<circle class="st0" cx="561.04" cy="39.41" r="5.86"/>
				<circle class="st0" cx="494.86" cy="63.03" r="4.35"/>
				<circle class="st0" cx="464.34" cy="101.69" r="4.35"/>
				<circle class="st0" cx="571.25" cy="78.75" r="4.35"/>
				<circle class="st0" cx="270.52" cy="688.38" r="4.81"/>
				<circle class="st0" cx="792.68" cy="301.84" r="4.86"/>
				<circle class="st0" cx="777.38" cy="309.49" r="4.86"/>
				<circle class="st0" cx="793.93" cy="358.04" r="4.86"/>
				<circle class="st0" cx="618.05" cy="498.46" r="4.86"/>
			</g>
			<g>
				<line class="st6" x1="272.54" y1="750.1" x2="284.42" y2="734.87"/>
				<line class="st6" x1="301.26" y1="718.79" x2="315.08" y2="709.02"/>
				<polyline class="st6" points="286.14,715.21 270.52,688.38 288.86,647.03 				"/>
				<line class="st6" x1="297.46" y1="634.36" x2="314.5" y2="613.57"/>
				<line class="st6" x1="288.86" y1="633.69" x2="272.04" y2="583.12"/>
				<line class="st6" x1="274.81" y1="574.15" x2="292.95" y2="550.14"/>
				<line class="st6" x1="298.16" y1="518.8" x2="279.28" y2="481.53"/>
				<line class="st6" x1="281.36" y1="473.78" x2="298.99" y2="457.1"/>
				<line class="st6" x1="303.77" y1="436.68" x2="283.67" y2="408.97"/>
				<line class="st6" x1="284.66" y1="386.16" x2="304.58" y2="356.74"/>
				<line class="st6" x1="306.73" y1="332.59" x2="303.02" y2="306.2"/>
				<line class="st6" x1="299.11" y1="297.13" x2="291.82" y2="293.67"/>
				<line class="st6" x1="292.93" y1="264.49" x2="308.98" y2="251.85"/>
				<line class="st6" x1="308.98" y1="242.04" x2="290.29" y2="230.17"/>
				<line class="st6" x1="311.77" y1="192.3" x2="321.33" y2="209.51"/>
				<line class="st6" x1="326.24" y1="209.51" x2="342.18" y2="181.29"/>
				<line class="st6" x1="358.49" y1="145.42" x2="365.4" y2="118.68"/>
				<line class="st6" x1="369.28" y1="114.81" x2="403.52" y2="109.89"/>
				<line class="st6" x1="412.69" y1="112.35" x2="429.94" y2="124.04"/>
				<line class="st6" x1="434.04" y1="124.04" x2="461.98" y2="102.33"/>
				<polyline class="st6" points="408.44,104.98 411.57,82.14 440.48,74.26 				"/>
				<line class="st6" x1="465.12" y1="74.73" x2="493.1" y2="63.03"/>
				<line class="st6" x1="457.84" y1="78.75" x2="464.34" y2="100.82"/>
				<line class="st6" x1="496.89" y1="63.77" x2="524.43" y2="80.88"/>
				<line class="st6" x1="558.84" y1="42.82" x2="540.74" y2="79.15"/>
				<line class="st6" x1="552.57" y1="55.4" x2="571.25" y2="77.28"/>
				<line class="st6" x1="570.22" y1="79.72" x2="544.1" y2="88.36"/>
				<line class="st6" x1="572.35" y1="78.75" x2="610.41" y2="79.15"/>
				<line class="st6" x1="639.91" y1="95.99" x2="656.72" y2="120.02"/>
				<line class="st6" x1="671.09" y1="128.5" x2="702.16" y2="137.27"/>
				<line class="st6" x1="722.39" y1="149.64" x2="733.73" y2="170.04"/>
				<line class="st6" x1="733.73" y1="175.51" x2="723.06" y2="195.35"/>
				<line class="st6" x1="735.45" y1="170.82" x2="765.76" y2="170.82"/>
				<line class="st6" x1="769.11" y1="174.17" x2="773" y2="216.66"/>
				<line class="st6" x1="763.7" y1="248.9" x2="754.81" y2="265.32"/>
				<line class="st6" x1="782.32" y1="254.27" x2="792.68" y2="299.24"/>
				<line class="st6" x1="754.81" y1="275.26" x2="777.38" y2="307.29"/>
				<line class="st6" x1="776.24" y1="312.15" x2="766.58" y2="333.36"/>
				<line class="st6" x1="772.44" y1="344.59" x2="792.68" y2="357.24"/>
				<line class="st6" x1="752.99" y1="354.75" x2="748.18" y2="389.71"/>
				<line class="st6" x1="744.29" y1="399.66" x2="738.19" y2="412.57"/>
				<line class="st6" x1="726.9" y1="436.05" x2="723.59" y2="455.23"/>
				<line class="st6" x1="719.97" y1="461.12" x2="685.94" y2="478.9"/>
				<line class="st6" x1="677.16" y1="485.74" x2="660.15" y2="513.54"/>
				<line class="st6" x1="647.42" y1="517.2" x2="620.32" y2="499.64"/>
				<line class="st6" x1="615.01" y1="498.46" x2="583.31" y2="501.37"/>
				<line class="st6" x1="579.25" y1="505.43" x2="585.55" y2="513.29"/>
				<line class="st6" x1="522.36" y1="532.03" x2="555.82" y2="533.61"/>
			</g>
		</g>
		<g class="st7">
			<g>
				<linearGradient id="SVGID_1_" gradientUnits="userSpaceOnUse" x1="605.9216" y1="519.2206" x2="605.9216" y2="176.1925">
					<stop  offset="0" style="stop-color:#808080;stop-opacity:0"/>
					<stop  offset="1" style="stop-color:#808080"/>
				</linearGradient>
				<path class="st8" d="M682.46,377.8l-7.94-11.61l15.05-31.14c0.87,0.41,1.84,0.64,2.86,0.64c3.72,0,6.75-3.03,6.75-6.75
					c0-3.47-2.63-6.33-6-6.7v-21.95l5.25-0.4l4.27-8.89l34.07-6.15l-0.27-1.48l-34,6.14l-5.47-8l-9.83,0.75l-19.12-22.56
					c3.49-1.71,5.91-5.29,5.91-9.44c0-1.86-0.49-3.61-1.34-5.13l43.95-30.32l-0.85-1.23l-43.93,30.31c-1.78-2.32-4.49-3.87-7.57-4.1
					l0.77-45.78c3.01-0.36,5.35-2.93,5.35-6.04c0-1.02-0.26-1.98-0.7-2.83l17.8-12.34l-0.86-1.23l-17.8,12.34
					c-1.12-1.24-2.73-2.03-4.53-2.03c-1.8,0-3.41,0.79-4.53,2.04l-17.15-11.79c0.52-0.9,0.82-1.93,0.82-3.04
					c0-3.36-2.73-6.09-6.09-6.09c-3.15,0-5.74,2.4-6.06,5.47l-26.79,3.72c-0.78-1.82-2.58-3.09-4.68-3.09
					c-0.57,0-1.11,0.12-1.62,0.29l-27.23-28.82c0.32-0.67,0.52-1.41,0.52-2.2c0-2.81-2.28-5.09-5.09-5.09s-5.09,2.28-5.09,5.09
					c0,1.26,0.47,2.39,1.23,3.28l-10.73,9.42l-1.8-2.63l-12.49,0.95l-5.01,10.44l-29.95-0.8c-0.35-2.87-2.78-5.09-5.74-5.09
					c-0.16,0-0.33,0.01-0.49,0.02l6.7-17.31c3.7-0.22,6.65-3.29,6.65-7.05c0-3.9-3.17-7.07-7.07-7.07s-7.07,3.17-7.07,7.07
					c0,3.51,2.57,6.42,5.92,6.97l-6.9,17.82c-2.07,0.88-3.53,2.94-3.53,5.33c0,1.48,0.56,2.83,1.48,3.86l-11.8,33.7
					c-3.12,0.09-5.62,2.64-5.62,5.78c0,3.2,2.59,5.79,5.79,5.79c3.2,0,5.79-2.59,5.79-5.79c0-2.73-1.89-5.01-4.43-5.62l11.5-32.83
					c0.89,0.56,1.95,0.9,3.08,0.9c2.93,0,5.34-2.17,5.73-4.99l29.99,0.8l6.63,9.7l12.49-0.95l5.42-11.29l-4.42-6.46l11.01-9.67
					c0.79,0.5,1.72,0.81,2.73,0.81c1.47,0,2.78-0.63,3.71-1.62l26.7,28.27c-1.25,0.93-2.08,2.4-2.08,4.08c0,1.42,0.58,2.7,1.52,3.62
					l-9.18,31.95c-2.64,0.26-4.71,2.46-4.71,5.17c0,2.88,2.34,5.22,5.22,5.22c1.84,0,3.46-0.97,4.39-2.42l38.18,4.06
					c0.2,3.8,3.34,6.83,7.19,6.83c0.9,0,1.75-0.17,2.54-0.47l14.56,16.8c-0.92,1.56-1.46,3.38-1.46,5.32
					c0,5.8,4.72,10.51,10.51,10.51c1.09,0,2.15-0.17,3.14-0.48l19.39,22.88l-4.19,8.73l6,8.78l3.85-0.29v21.84
					c-3.37,0.37-6,3.24-6,6.7c0,2.16,1.02,4.08,2.61,5.32l-15.11,31.28l-14.03,1.07l-6.47,13.47l7.66,11.21l-19.53,12.47l0.41,0.64
					c-1.07-1.08-2.56-1.76-4.21-1.76c-3.27,0-5.92,2.65-5.92,5.92c0,1,0.25,1.94,0.69,2.77l-21.65,21.95
					c-1.44-0.96-3.18-1.53-5.04-1.53c-5.03,0-9.11,4.09-9.11,9.11c0,1.78,0.52,3.43,1.4,4.83l-29.28,17.43
					c-1.06-1.6-2.87-2.65-4.93-2.65c-3.26,0-5.92,2.65-5.92,5.92s2.65,5.92,5.92,5.92s5.92-2.65,5.92-5.92
					c0-0.67-0.12-1.31-0.32-1.91l29.52-17.57c1.67,1.88,4.1,3.07,6.81,3.07c2.58,0,4.9-1.08,6.56-2.8l16.25,20.47l1.17-0.93
					l-16.46-20.72c1-1.46,1.58-3.22,1.58-5.12c0-2.62-1.12-4.98-2.89-6.64l21.36-21.65c1.08,1.17,2.63,1.91,4.35,1.91
					c3.27,0,5.92-2.65,5.92-5.92c0-1.35-0.46-2.59-1.22-3.59l19.7-12.58l14.6-1.11l2.41-5.01l30.79,17.03l0.73-1.31l-30.87-17.08
					L682.46,377.8z M497.53,129.6c0-2.8,2.27-5.07,5.07-5.07s5.07,2.27,5.07,5.07s-2.27,5.07-5.07,5.07S497.53,132.4,497.53,129.6z
					 M550.35,168.16l-10.19,0.78l-5.77-8.44l4.42-9.21l10.19-0.78l5.77,8.44L550.35,168.16z M664.29,183.89
					c2.25,0,4.09,1.83,4.09,4.09s-1.83,4.09-4.09,4.09s-4.09-1.83-4.09-4.09S662.03,183.89,664.29,183.89z M637.34,165.01
					c2.25,0,4.09,1.83,4.09,4.09s-1.83,4.09-4.09,4.09s-4.09-1.83-4.09-4.09S635.08,165.01,637.34,165.01z M587.58,218.15
					c-1.78,0-3.22-1.44-3.22-3.22c0-1.77,1.44-3.22,3.22-3.22s3.22,1.44,3.22,3.22C590.8,216.71,589.35,218.15,587.58,218.15z
					 M641.26,227.46c1.98-1.29,3.29-3.51,3.29-6.05c0-3.98-3.23-7.21-7.21-7.21c-3.6,0-6.58,2.64-7.12,6.1l-37.63-4
					c0.12-0.44,0.2-0.89,0.2-1.36c0-2.52-1.8-4.63-4.18-5.11l8.93-31.1c0.69,0.34,1.45,0.56,2.27,0.56c2.81,0,5.09-2.28,5.09-5.09
					c0-0.18-0.03-0.35-0.05-0.53l26.48-3.67c0.43,2.94,2.96,5.2,6.02,5.2c1.71,0,3.25-0.71,4.36-1.85l17.2,11.82
					c-0.44,0.84-0.7,1.8-0.7,2.82c0,3.1,2.33,5.66,5.32,6.03l-0.77,45.78c-3,0.21-5.65,1.67-7.44,3.88L641.26,227.46z
					 M654.97,250.27c0-4.69,3.82-8.51,8.51-8.51c4.69,0,8.51,3.82,8.51,8.51s-3.82,8.51-8.51,8.51
					C658.79,258.78,654.97,254.96,654.97,250.27z M684.12,291.74l3.6-7.51l8.3-0.63l4.7,6.88l-3.6,7.51l-8.3,0.63L684.12,291.74z
					 M692.43,324.19c2.62,0,4.75,2.13,4.75,4.75s-2.13,4.75-4.75,4.75s-4.75-2.13-4.75-4.75S689.81,324.19,692.43,324.19z
					 M563.16,470.29c-2.16,0-3.92-1.76-3.92-3.92s1.76-3.92,3.92-3.92s3.92,1.76,3.92,3.92S565.32,470.29,563.16,470.29z
					 M612.19,440.85c0,3.92-3.19,7.11-7.11,7.11s-7.11-3.19-7.11-7.11s3.19-7.11,7.11-7.11S612.19,436.93,612.19,440.85z
					 M674.7,389.36l-12.59,0.96l-7.13-10.43l5.47-11.38l12.59-0.96l7.13,10.43L674.7,389.36z"/>
				
					<linearGradient id="SVGID_00000097473931565186216670000000746133273399072435_" gradientUnits="userSpaceOnUse" x1="411.7849" y1="519.2206" x2="411.7849" y2="176.1925">
					<stop  offset="0" style="stop-color:#808080;stop-opacity:0"/>
					<stop  offset="1" style="stop-color:#808080"/>
				</linearGradient>
				<path style="fill:url(#SVGID_00000097473931565186216670000000746133273399072435_);" d="M464.74,245.23
					c0-3.2-2.59-5.79-5.79-5.79c-0.63,0-1.24,0.1-1.8,0.29l-2.06-11.34l11.34-23.63l-14.7-21.51l1.02-5.5
					c0.14,0.01,0.27,0.02,0.41,0.02c0.31,0,0.62-0.02,0.93-0.06c1.87-0.25,3.54-1.21,4.69-2.71c1.15-1.5,1.65-3.35,1.4-5.23
					c-0.25-1.87-1.21-3.54-2.71-4.69c-1.5-1.15-3.36-1.65-5.23-1.4c-1.87,0.25-3.54,1.21-4.69,2.71c-1.15,1.5-1.65,3.35-1.4,5.23
					c0.38,2.89,2.47,5.15,5.12,5.89l-0.99,5.29l-25.52,1.94l-11.23,23.39l-31.81,7.23c-0.89-2.05-2.93-3.48-5.31-3.48
					c-3.2,0-5.79,2.59-5.79,5.79c0,2.26,1.29,4.2,3.17,5.16l-1.67,36c-2.49,0.27-4.51,2.12-5.03,4.52l-33.4-3.69l-0.17,1.49
					l33.45,3.7c0.14,3.08,2.67,5.53,5.78,5.53c2.45,0,4.54-1.52,5.39-3.67l17.52,6.64c-0.03,0.04-0.07,0.07-0.1,0.11
					c-1.15,1.5-1.65,3.35-1.4,5.23c0.25,1.87,1.21,3.54,2.71,4.69c1.06,0.82,2.31,1.28,3.61,1.41l2.31,39.77
					c-0.13,0.01-0.26,0.01-0.38,0.03c-3.99,0.53-7.03,3.57-7.76,7.31l-15.43-13.59c1.89-1.3,3.13-3.47,3.13-5.94
					c0-3.97-3.22-7.19-7.19-7.19c-3.97,0-7.19,3.22-7.19,7.19s3.22,7.19,7.19,7.19c0.93,0,1.82-0.18,2.64-0.51l16.69,14.69
					c0,0.35,0.02,0.71,0.07,1.07c0.37,2.84,2.03,5.2,4.3,6.59l-21.06,24.11l-2.28-3.33l-10.73,0.82l-0.96,2.01l-31.27-35.2l-1.12,1
					l31.68,35.67l-2.99,6.23l3.2,4.67l-32.42,25.22l25.29,28.66c-1.6,1.32-2.61,3.31-2.61,5.55c0,3.97,3.22,7.19,7.19,7.19
					c3.97,0,7.19-3.22,7.19-7.19c0-1.88-0.73-3.58-1.9-4.86l21.91-28.36c1.02,0.56,2.19,0.88,3.44,0.88c3.97,0,7.19-3.22,7.19-7.19
					s-3.22-7.19-7.19-7.19c-1.44,0-2.77,0.43-3.89,1.15l-10.16-11.34l4.23-8.82l-2.92-4.27l21.57-24.7
					c1.05,0.42,2.18,0.65,3.35,0.65c0.4,0,0.79-0.03,1.2-0.08c2.42-0.32,4.56-1.56,6.05-3.49c1.48-1.93,2.12-4.33,1.81-6.74
					c-0.32-2.42-1.56-4.56-3.49-6.05c-1.43-1.09-3.11-1.73-4.86-1.86l-2.31-39.75c0.04,0,0.08,0,0.12-0.01
					c1.87-0.25,3.54-1.21,4.69-2.71c0.79-1.04,1.27-2.24,1.41-3.51l18.5,0.85c-0.01,0.37,0,0.74,0.05,1.11
					c0.25,1.87,1.21,3.54,2.71,4.69c1.25,0.96,2.74,1.46,4.29,1.46c0.05,0,0.1-0.01,0.15-0.01l1.05,12.05
					c-2.18,0.88-3.59,3.15-3.26,5.59c0.18,1.4,0.9,2.65,2.03,3.51c0.93,0.72,2.05,1.09,3.21,1.09c0.23,0,0.47-0.02,0.7-0.05
					c1.4-0.18,2.65-0.9,3.51-2.03c0.86-1.12,1.23-2.51,1.05-3.91c-0.18-1.4-0.9-2.65-2.03-3.51c-1.07-0.82-2.39-1.19-3.73-1.05
					l-1.03-11.88c1.59-0.37,2.98-1.27,3.99-2.58c1.15-1.5,1.65-3.35,1.4-5.23c-0.26-1.96-1.31-3.63-2.78-4.73l17.14-24.39
					c1.02,0.9,2.36,1.46,3.83,1.46c2.15,0,4.03-1.18,5.03-2.92l28.08,13l0.63-1.36l-28.14-13.03
					C464.66,246.24,464.74,245.74,464.74,245.23z M448.13,171.37c-0.18-1.34,0.18-2.67,1-3.75c0.82-1.07,2.02-1.76,3.36-1.94
					c0.22-0.03,0.45-0.04,0.67-0.04c1.11,0,2.18,0.36,3.08,1.05c1.07,0.82,1.76,2.02,1.94,3.36v0c0.18,1.34-0.18,2.67-1,3.75
					c-0.82,1.07-2.02,1.76-3.36,1.94C451.05,176.1,448.49,174.14,448.13,171.37z M386.71,402.74l-21.8,28.22
					c-1.18-0.84-2.61-1.33-4.16-1.33c-1.2,0-2.32,0.3-3.31,0.81l-24.37-27.62l31.09-24.19l2.03,2.97l9.97-0.76l10.16,11.34
					c-1.31,1.3-2.13,3.11-2.13,5.1C384.19,399.46,385.17,401.42,386.71,402.74z M375.61,378.87l-8.43,0.64l-4.77-6.98l3.66-7.62
					l8.42-0.64l4.77,6.98L375.61,378.87z M426.06,186.66l24.31-1.85l13.76,20.12l-10.55,21.98l-24.31,1.85l-13.76-20.12
					L426.06,186.66z M373.61,258.88l1.65-35.52c0.37,0.07,0.75,0.11,1.14,0.11c3.2,0,5.79-2.59,5.79-5.79c0-0.3-0.03-0.58-0.07-0.87
					l31.64-7.19l13.96,20.42l-25.84,40.7c-0.54-0.05-1.09-0.05-1.64,0.02c-1.27,0.17-2.43,0.67-3.42,1.43l-18.33-6.95
					c0.02-0.21,0.04-0.43,0.04-0.65C378.53,261.7,376.4,259.31,373.61,258.88z M410.64,332.71c0.25,1.89-0.25,3.76-1.41,5.27
					s-2.83,2.48-4.72,2.73c-3.9,0.51-7.48-2.24-7.99-6.13c-0.51-3.89,2.24-7.48,6.13-7.99c0.32-0.04,0.63-0.06,0.94-0.06
					c1.56,0,3.07,0.51,4.32,1.47C409.43,329.15,410.4,330.82,410.64,332.71z M405.18,280.86c-0.82,1.07-2.02,1.76-3.36,1.94
					c-1.34,0.18-2.67-0.18-3.75-1s-1.76-2.02-1.94-3.36c-0.18-1.34,0.18-2.67,1-3.75c0.82-1.07,2.02-1.76,3.36-1.94
					c0.22-0.03,0.45-0.04,0.67-0.04c1.11,0,2.18,0.36,3.08,1.05c1.07,0.82,1.76,2.02,1.94,3.36
					C406.37,278.46,406.01,279.79,405.18,280.86z M438.91,301.01c0.7,0.54,1.15,1.31,1.26,2.18c0.11,0.87-0.12,1.74-0.65,2.43
					s-1.31,1.15-2.18,1.26c-0.87,0.11-1.74-0.12-2.43-0.65c-0.7-0.54-1.15-1.31-1.26-2.18c-0.24-1.8,1.03-3.46,2.83-3.69
					c0.15-0.02,0.29-0.03,0.44-0.03C437.63,300.33,438.33,300.57,438.91,301.01z M438.77,278.95L438.77,278.95
					c0.18,1.34-0.18,2.67-1,3.75c-0.82,1.07-2.02,1.76-3.36,1.94c-1.34,0.17-2.67-0.18-3.75-1c-1.07-0.82-1.76-2.02-1.94-3.36
					c-0.36-2.77,1.59-5.32,4.37-5.69c0.22-0.03,0.45-0.04,0.67-0.04C436.25,274.54,438.43,276.4,438.77,278.95z M432.82,272.6
					c-2.97,0.39-5.26,2.58-5.94,5.33l-18.69-0.86c-0.01-0.07-0.01-0.14-0.02-0.22v0c-0.25-1.87-1.21-3.54-2.71-4.69
					c-0.62-0.48-1.31-0.83-2.03-1.08l25.59-40.3l24.62-1.88l2.09,11.5c-1.56,1.04-2.59,2.81-2.59,4.82c0,1.17,0.35,2.25,0.94,3.16
					l-17.42,24.79C435.51,272.65,434.18,272.42,432.82,272.6z"/>
			</g>
		</g>
	</g>
	<g>
		<g>
			<g>
				<path class="st1" d="M54.39,803.04h51.51c26.46,0,44.42,14.89,44.42,38.56c0,27.05-20.48,39.46-45.05,39.46H81.33v46.5H54.39
					V803.04z M81.33,859.62h20.55c12.46,0,21.27-4.79,21.27-17.51c0-12.84-9.29-17.65-20.7-17.65H81.33V859.62z"/>
				<path class="st1" d="M189.05,795.72v49.39c4.1-6.05,11.68-13.21,26.78-13.21c17.44,0,31.32,10.32,31.32,35.68v59.98h-25.73
					v-56.11c0-12.16-4.31-18.61-15.17-18.61c-14.38,0-17.21,10.7-17.21,25.12v49.6h-25.88V795.72H189.05z"/>
				<path class="st1" d="M343.47,903.41c0,8.9,0.72,21.9,1.26,24.16h-24.73c-0.72-1.85-1.26-6.78-1.31-9.14
					c-3.39,5.25-9.75,11.3-26.28,11.3c-22.54,0-32.05-14.82-32.05-29.32c0-21.3,17.1-31.12,44.51-31.12c4.56,0,10.21,0,13.34,0
					v-5.71c0-6.65-2.39-13.18-14.4-13.18c-10.93,0-13.32,4.64-14.51,11.41H264.7c1.4-16.61,11.68-30.06,40.1-29.9
					c25.04,0.16,38.67,9.94,38.67,32.19V903.41z M318.25,885c-2.16,0-7.13,0-10.55,0c-15.6,0-21.38,4.76-21.38,13.78
					c0,6.77,4.15,12.47,13.46,12.47c16.45,0,18.47-11.43,18.47-23.79V885z"/>
				<path class="st1" d="M363.48,859.43c0-9.29-0.02-17.54-0.18-25.36h25.39c0.34,2.09,0.68,11.37,0.68,16.41
					c4.12-10.68,14.09-18.49,30-18.58v24.7c-18.78-0.48-30,4.57-30,30.2v40.76h-25.88V859.43z"/>
				<path class="st1" d="M429.76,858.17c0-8.08,0-16.1-0.18-24.09h24.75c0.34,2.28,0.86,7.5,1,11.15
					c4.75-6.96,12.26-13.31,25.98-13.31c13.44,0,20.83,6.96,24.12,14.22c5.47-7.64,13.55-14.22,28.8-14.22
					c16.29,0,29.63,10.01,29.63,34.33v61.33h-25.25v-58.18c0-8.44-3.06-16.7-13.66-16.7c-11,0-15.29,7.09-15.29,21.43v53.45h-25.39
					v-57.21c0-9.69-2.38-17.52-13.44-17.52c-10.52,0-15.52,6.47-15.52,22.51v52.21h-25.57V858.17z"/>
				<path class="st1" d="M660.11,903.41c0,8.9,0.72,21.9,1.26,24.16h-24.73c-0.72-1.85-1.26-6.78-1.31-9.14
					c-3.39,5.25-9.75,11.3-26.28,11.3c-22.54,0-32.05-14.82-32.05-29.32c0-21.3,17.1-31.12,44.51-31.12c4.56,0,10.21,0,13.34,0
					v-5.71c0-6.65-2.39-13.18-14.4-13.18c-10.93,0-13.32,4.64-14.51,11.41h-24.61c1.4-16.61,11.68-30.06,40.1-29.9
					c25.04,0.16,38.67,9.94,38.67,32.19V903.41z M634.88,885c-2.16,0-7.13,0-10.55,0c-15.6,0-21.38,4.76-21.38,13.78
					c0,6.77,4.15,12.47,13.46,12.47c16.45,0,18.47-11.43,18.47-23.79V885z"/>
				<path class="st3" d="M701.37,891.06c2.84,12.5,11.81,17.99,26.22,17.99c14.37,0,20.52-5.68,20.52-14.79
					c0-10.13-6-14.53-27.3-19.49c-33.89-7.96-42.27-20.28-42.27-37.09c0-21.71,16.24-36.44,45.71-36.44
					c33.06,0,46.23,17.77,48.02,35.99h-27.13c-1.3-7.66-5.54-15.99-21.59-15.99c-10.93,0-17.52,4.51-17.52,13.36
					c0,8.66,5.29,12.17,25.41,16.84c36.22,8.53,44.16,22.01,44.16,39.56c0,22.74-17.2,38.34-50.12,38.34
					c-31.61,0-48.26-15.56-51.24-38.26H701.37z"/>
				<path class="st3" d="M791.19,795.72h25.88v23.08h-25.88V795.72z M791.19,834.07h25.88v93.49h-25.88V834.07z"/>
				<path class="st3" d="M921.94,916.17c0,30.01-11.08,49-46.49,49c-34.13,0-40.87-19.07-41.76-29.62h26.38
					c1.82,6.42,6.55,10.79,16.53,10.79c16.8,0,19.97-10.24,19.97-28.57v-4.46c-4.88,8.08-12.61,13.13-26.35,13.13
					c-24.63,0-38.66-20.18-38.66-45.31c0-29.23,17.5-49.23,40.88-49.23c16.04,0,22.71,7.56,24.13,11.92
					c0.18-2.54,0.84-8.22,1.02-9.75h24.55c-0.16,8.34-0.2,17.84-0.2,26.83V916.17z M858.16,879.98c0,16.09,8.04,25.58,19.5,25.58
					c15.58,0,19.74-10.7,19.74-26.39c0-15.73-2.77-26.53-19.2-26.53C866.96,852.64,858.16,861.29,858.16,879.98z"/>
				<path class="st3" d="M941.63,857.62c0-7.95,0-16.65-0.18-23.55h25.07c0.52,2.41,0.86,8.91,1,11.91
					c3.18-5.87,10.74-14.08,27.12-14.08c18.78,0,30.98,12.69,30.98,36.18v59.47h-25.89v-56.6c0-10.51-3.5-18.12-14.92-18.12
					c-11,0-17.29,6.11-17.29,22.62v52.1h-25.88V857.62z"/>
			</g>
			<g>
				<path class="st3" d="M369.62,996.02c1.47,0,2.72-0.52,3.76-1.55c1.03-1.03,1.55-2.29,1.55-3.75c0-1.47-0.52-2.72-1.55-3.75
					c-1.04-1.03-2.29-1.55-3.76-1.55c-1.47,0-2.72,0.52-3.75,1.55c-1.04,1.04-1.55,2.29-1.55,3.75c0,1.47,0.52,2.72,1.55,3.75
					C366.9,995.5,368.16,996.02,369.62,996.02z"/>
				<path class="st3" d="M428.8,987.91h-8.21v30.24h-15.52c-1.87,0-3.37-0.27-4.51-0.8c-1.14-0.53-2.02-1.27-2.65-2.2
					c-0.64-0.93-1.05-2.08-1.25-3.45c-0.2-1.37-0.3-2.89-0.3-4.56v-7.71h-8.21v25.67c0,3.33-0.37,6.08-1.1,8.24
					c-0.73,2.16-1.88,3.86-3.45,5.09c-1.56,1.23-3.54,2.1-5.94,2.6c-2.4,0.5-5.26,0.75-8.59,0.75c-6.46,0-11.34-1.29-14.63-3.88
					c-3.3-2.59-4.94-7.1-4.94-13.54v-13.72h-8.21v15.42c0,7.74,2.31,13.68,6.92,17.82c4.61,4.14,11.5,6.21,20.66,6.21
					c4.35,0,8.23-0.47,11.64-1.4c3.41-0.94,6.29-2.4,8.63-4.41c2.34-2,4.13-4.57,5.37-7.71c1.24-3.14,1.86-6.91,1.86-11.31v-3.71
					c0.73,1.34,1.79,2.49,3.15,3.45c1.25,0.89,2.94,1.35,5.01,1.42c0.15,0.01,0.29,0.03,0.45,0.03h23.83V987.91z"/>
				<path class="st3" d="M414.28,1036.27c-1.47,0-2.72,0.52-3.75,1.55c-1.04,1.03-1.55,2.29-1.55,3.75c0,1.47,0.52,2.72,1.55,3.75
					c1.03,1.03,2.29,1.55,3.75,1.55c1.47,0,2.72-0.52,3.75-1.55c1.03-1.04,1.55-2.29,1.55-3.75c0-1.47-0.52-2.72-1.55-3.75
					C417,1036.79,415.75,1036.27,414.28,1036.27z"/>
				<path class="st3" d="M427.3,1036.27c-1.47,0-2.72,0.52-3.75,1.55c-1.04,1.03-1.55,2.29-1.55,3.75c0,1.47,0.52,2.72,1.55,3.75
					c1.03,1.03,2.29,1.55,3.75,1.55c1.47,0,2.72-0.52,3.75-1.55c1.03-1.04,1.55-2.29,1.55-3.75c0-1.47-0.52-2.72-1.55-3.75
					C430.02,1036.79,428.77,1036.27,427.3,1036.27z"/>
				<path class="st3" d="M525.73,1018.15h-8.41c-1.74,0-3.17-0.27-4.31-0.8c-1.14-0.53-2.02-1.27-2.65-2.2
					c-0.64-0.93-1.07-2.08-1.3-3.45c-0.23-1.37-0.35-2.89-0.35-4.56v-14.22h-8.21v17.92c0,1.67-0.18,2.99-0.55,3.96
					c-0.37,0.97-0.92,1.7-1.65,2.2c-0.74,0.5-1.65,0.82-2.75,0.95c-1.1,0.13-2.39,0.2-3.86,0.2c-2.34,0-4.17-0.27-5.51-0.8
					c-1.34-0.53-2.37-1.27-3.1-2.2c-0.74-0.93-1.2-2.08-1.4-3.45c-0.2-1.37-0.3-2.89-0.3-4.56v-14.32h-8.21v18.02
					c0,1.67-0.2,2.99-0.6,3.96c-0.4,0.97-1.05,1.7-1.95,2.2c-0.9,0.5-2.12,0.82-3.65,0.95c-1.54,0.13-3.4,0.2-5.61,0.2h-3.5h-1.6
					c-3,0-4.94-0.58-5.81-1.75c-0.87-1.17-1.3-3.15-1.3-5.96v-55.47h-8.21v57.68c0,2.67,0.35,4.89,1.05,6.66
					c0.7,1.77,1.67,3.19,2.9,4.25c1.23,1.07,2.74,1.82,4.51,2.25c1.77,0.43,3.72,0.65,5.86,0.65h2.6h3.3c2.94,0,5.46-0.08,7.56-0.25
					c2.1-0.17,3.87-0.5,5.31-1c1.43-0.5,2.6-1.17,3.5-2c0.9-0.83,1.65-1.95,2.25-3.35c0.4,0.8,0.88,1.6,1.45,2.4
					c0.57,0.8,1.35,1.52,2.35,2.15c1,0.63,2.27,1.14,3.8,1.5c1.54,0.37,3.44,0.55,5.71,0.55c3.6,0,6.67-0.4,9.21-1.2
					c2.54-0.8,4.41-2.57,5.61-5.31c0.53,1.87,1.58,3.42,3.15,4.66c1.57,1.24,3.65,1.85,6.26,1.85h16.62v-38.55h-8.21V1018.15z"/>
				<path class="st3" d="M628.82,994.48c-1.57-1.77-3.42-3.15-5.56-4.12c-2.14-0.97-4.47-1.46-7.01-1.46c-1.8,0-3.62,0.23-5.46,0.7
					c-1.84,0.47-3.64,1.42-5.41,2.86c-1.77,1.44-3.5,3.48-5.21,6.12s-3.32,6.11-4.86,10.39c-0.74,2.01-1.52,3.6-2.35,4.77
					c-0.83,1.17-1.69,2.09-2.55,2.76c-0.87,0.67-1.74,1.11-2.6,1.31c-0.87,0.2-1.7,0.3-2.5,0.3h-4.11c-0.14,0-0.26,0.02-0.39,0.02
					h-1.11c-3,0-4.94-0.58-5.81-1.75c-0.87-1.17-1.3-3.15-1.3-5.96v-55.47h-8.21v57.68c0,2.67,0.35,4.89,1.05,6.66
					c0.7,1.77,1.67,3.19,2.9,4.25c1.23,1.07,2.74,1.82,4.51,2.25c1.77,0.43,3.72,0.65,5.86,0.65h2.5h0.1h4.21
					c1.2,0,2.33-0.05,3.4-0.15c1.07-0.1,2.1-0.33,3.1-0.7c1-0.37,1.95-0.93,2.85-1.7c0.9-0.77,1.79-1.82,2.65-3.15
					c3.4,2.54,6.71,4.34,9.91,5.41c3.2,1.07,6.37,1.6,9.51,1.6c5.74,0,10-1.69,12.77-5.07c2.77-3.38,4.16-7.95,4.16-13.7
					c0-3.01-0.45-5.74-1.35-8.18C631.62,998.37,630.39,996.26,628.82,994.48z M623.11,1016.85c-1.7,1.6-3.96,2.4-6.76,2.4
					c-2.54,0-5.02-0.48-7.46-1.45c-2.44-0.97-4.89-2.25-7.36-3.86c2.07-6.21,4.27-10.55,6.61-13.02c2.34-2.47,4.91-3.71,7.71-3.71
					c1.6,0,3,0.32,4.21,0.95c1.2,0.63,2.22,1.49,3.05,2.55c0.83,1.07,1.47,2.3,1.9,3.71c0.43,1.4,0.65,2.84,0.65,4.31
					C625.66,1012.54,624.81,1015.25,623.11,1016.85z"/>
				<path class="st3" d="M651.3,1019.75c0,3.47-0.08,6.43-0.25,8.86c-0.17,2.44-0.7,4.44-1.6,6.01c-0.9,1.57-2.27,2.7-4.11,3.4
					c-1.84,0.7-4.39,1.05-7.66,1.05v8.31c4.47,0,8.13-0.47,10.97-1.4c2.84-0.94,5.08-2.44,6.7-4.51c1.62-2.07,2.72-4.79,3.29-8.16
					c0.57-3.37,0.86-7.53,0.86-12.47v-27.94h-8.21V1019.75z"/>
				<path class="st3" d="M716.99,976.39c1.47,0,2.72-0.52,3.75-1.55c1.03-1.03,1.55-2.29,1.55-3.75c0-1.47-0.52-2.72-1.55-3.76
					c-1.04-1.03-2.29-1.55-3.75-1.55c-1.47,0-2.72,0.52-3.75,1.55c-1.04,1.04-1.55,2.29-1.55,3.76c0,1.47,0.52,2.72,1.55,3.75
					C714.26,975.88,715.52,976.39,716.99,976.39z"/>
				<path class="st3" d="M734.41,1000.48c-0.54-2.5-1.49-4.79-2.86-6.86c-1.37-2.07-3.23-3.77-5.57-5.11c-2.34-1.33-5.35-2-9.04-2
					c-3.21,0-6.04,0.62-8.48,1.85c-2.44,1.24-4.5,2.84-6.17,4.81c-1.67,1.97-2.94,4.22-3.81,6.76c-0.87,2.54-1.3,5.11-1.3,7.71
					c0,2.2,0.27,4.16,0.8,5.86c0.53,1.7,1.17,3.25,1.91,4.66h-11.42h-1.6c-3,0-4.94-0.58-5.81-1.75c-0.87-1.17-1.3-3.15-1.3-5.96
					v-55.47h-8.21v57.68c0,2.67,0.35,4.89,1.05,6.66c0.7,1.77,1.67,3.19,2.9,4.25c1.23,1.07,2.74,1.82,4.51,2.25
					c1.77,0.43,3.72,0.65,5.86,0.65h2.6h46.76v-18.62C735.21,1005.43,734.94,1002.98,734.41,1000.48z M727,1018.15h-9.61
					c-3.47,0-6.41-0.95-8.81-2.85s-3.61-4.89-3.61-8.96c0-3.27,1-6.07,3-8.41c2-2.34,4.77-3.5,8.31-3.5c2.14,0,3.91,0.42,5.31,1.25
					c1.4,0.84,2.5,1.9,3.3,3.2s1.35,2.77,1.65,4.41c0.3,1.64,0.45,3.25,0.45,4.86V1018.15z"/>
			</g>
		</g>
		<g>
			<path class="st3" d="M796.92,999.49c0.49,0.51,230.88,6.39,230.73,7.84c-0.01,0.27-0.22,0.48-0.48,0.49l-230.25,7.33
				c-4.32,0.14-7.94-3.25-8.07-7.58C788.69,1003.07,792.43,999.33,796.92,999.49L796.92,999.49z"/>
			<path class="st3" d="M283.08,1015.14c-0.49-0.51-230.88-6.39-230.73-7.84c0.01-0.27,0.22-0.48,0.48-0.49l230.25-7.33
				c4.32-0.14,7.94,3.25,8.07,7.58C291.31,1011.56,287.57,1015.3,283.08,1015.14L283.08,1015.14z"/>
		</g>
	</g>
</g>
</svg>
